/* XPM */
static char *f2d981fa187148e7aa36473528362e30M7klKoMJbhwn0zd7[] = {
/* columns rows colors chars-per-pixel */
"32 32 12 1 ",
"  c #444774",
". c #8A4836",
"X c white",
"o c #571C27",
"O c #891E2B",
"+ c #C7CFDD",
"@ c black",
"# c #131313",
"$ c #F5555D",
"% c #1B1B1B",
"& c #F6CA9F",
"* c #B4B4B4",
/* pixels */
"                                ",
"                       .X       ",
"                       .XX      ",
"           ooooOOOO   ..+XX     ",
"         ooooOOOOOOO  .+++X     ",
"        oooOOOOOOOOOO..+++X     ",
"       oooOOOO@@@@@OO.++++XX    ",
"      oooOOOO@@@@@@@..+++++X    ",
"      oooOOO@@@@@@@@.O+++++X    ",
"     oooOOO@@@#####..O ++++XX   ",
"     oooOOO@@##$$##.$O  ++++X   ",
"    ooooOOO@@##$$#..$O   +++X   ",
"    ooooOOO@######.##O   +++X   ",
"   ooooooOOO#####..##O    ++XX  ",
"   ooooooOOO#####.##OO    +++X  ",
"    ooooooOOO###..#oO     +++X  ",
"      oooooOOOOO.Ooo       ++X  ",
"        ooooOoo..oo        ++X  ",
"         ooOOOo.o           +X  ",
"         oOOOO..oo          +X  ",
"        oooOOo.oOo          +X  ",
"       oooooo..oOOO         +X  ",
"      oooOOOO.%oOOO          X  ",
"     oooOOOO&&%OOOO          X  ",
"     oooOOOO&&%OOOO          X  ",
"    oooOOOO.&&%OOOO          X  ",
"   oooOOOOO.%%%OOOOo            ",
"  ooooOOOO..%%%OOOoo            ",
"  ooooOOOO.%%%OOOOoo            ",
"    ooooO..%%%Oooooo            ",
"     oooo. %%%ooooo             ",
"       **.    ***               "
};
